Coordinates
version=1
nRows=13
nColumns=34
inDegrees=yes

Units are S.I. units (second, meters, Newtons, ...)
If the header above contains a line with 'inDegrees', this indicates whether rotational values are in degrees (yes) or radians (no).

endheader
time	pelvis_tilt	pelvis_list	pelvis_rotation	pelvis_tx	pelvis_ty	pelvis_tz	hip_flexion_r	hip_adduction_r	hip_rotation_r	knee_angle_r	ankle_angle_r	subtalar_angle_r	mtp_angle_r	hip_flexion_l	hip_adduction_l	hip_rotation_l	knee_angle_l	ankle_angle_l	subtalar_angle_l	mtp_angle_l	lumbar_extension	lumbar_bending	lumbar_rotation	arm_flex_r	arm_add_r	arm_rot_r	elbow_flex_r	pro_sup_r	arm_flex_l	arm_add_l	arm_rot_l	elbow_flex_l	pro_sup_l
     28.66666670	     56.64742261	    -22.67373601	    169.62324811	     -0.06108113	      0.96518355	     -0.33010070	     27.44358776	     -2.14455921	     -4.37422652	     48.06849920	     -7.10054873	    -24.70096376	      0.00000000	     25.77288025	     -4.57106886	     -5.35525146	     46.23536840	    -10.37801534	    -14.55119994	      0.00000000	    -20.64033996	     -4.01557392	     39.00856067	    152.81095646	    191.84770014	     84.25417197	    145.29215700	     78.19206724	    442.29987264	     24.64954129	   -572.95779513	      0.00000000	      0.00000000
     28.68333330	     57.52121915	    -22.69390425	    170.18301715	     -0.06085313	      0.96317412	     -0.32970254	     28.28988529	     -2.09954935	     -4.55072266	     48.18390558	     -7.39416048	    -25.08761946	      0.00000000	     26.72093583	     -4.63721299	     -5.07043495	     46.47192522	    -10.25241914	    -14.55142099	      0.00000000	    -19.78470345	     -3.96725051	     38.28375421	    153.46069616	    192.53137905	     86.63075739	    144.98251036	     77.60595073	    442.26800521	     24.39762903	   -572.95779513	      0.00000000	      0.00000000
     28.70000000	     57.79257530	    -22.65764290	    170.38748846	     -0.06121023	      0.96193030	     -0.32981348	     28.48647242	     -2.06588849	     -4.67662370	     48.17317141	     -7.46801362	    -25.04684981	      0.00000000	     26.93098603	     -4.71510035	     -4.98442350	     46.46610985	    -10.36781405	    -14.47646030	      0.00000000	    -19.83146080	     -4.01701895	     38.38806209	    153.56950408	    192.91461810	     86.72664792	    145.02180172	     77.58419135	    442.53871202	     24.78271732	   -572.95779513	      0.00000000	      0.00000000
     28.71666670	     58.41144737	    -22.58295385	    170.84546009	     -0.06111040	      0.96038442	     -0.32951497	     29.04886702	     -1.98718604	     -4.89231478	     48.26314170	     -7.62903183	    -25.18106570	      0.00000000	     27.68057973	     -4.81942934	     -4.66618491	     46.82183322	    -10.49200489	    -14.72339117	      0.00000000	    -19.43155010	     -3.95962506	     38.25637848	    153.66866696	    193.35879794	     87.04280419	    144.59073610	     77.43343555	    442.41997374	     24.98898783	   -572.95779513	      0.00000000	      0.00000000
     28.73333330	     58.65132013	    -22.57592226	    171.01975053	     -0.06134061	      0.95918436	     -0.32973993	     29.21121232	     -1.96355740	     -4.97936794	     48.31584732	     -7.66817518	    -25.21349545	      0.00000000	     27.87237170	     -4.89755266	     -4.63370782	     46.88393859	    -10.65803176	    -14.69552185	      0.00000000	    -19.45005110	     -4.02992000	     38.40213510	    153.75191214	    193.71027051	     87.20879197	    144.63421813	     77.40670978	    442.29998366	     25.34561318	   -572.95779513	      0.00000000	      0.00000000
     28.75000000	     59.24636771	    -22.51750343	    171.32620915	     -0.06117532	      0.95754989	     -0.32958838	     29.72931079	     -1.80470320	     -5.02193080	     48.36322347	     -7.81367141	    -25.31128742	      0.00000000	     28.52948671	     -5.03529783	     -4.46440154	     47.12906213	    -10.93031583	    -14.99013946	      0.00000000	    -18.97882240	     -3.92770211	     38.44474194	    153.72724260	    194.22215827	     87.67950762	    144.12239649	     77.27385549	    441.82623236	     25.42344608	   -572.95779513	      0.00000000	      0.00000000
     28.76666670	     59.38339134	    -22.53457218	    171.44137175	     -0.06142835	      0.95640379	     -0.32986280	     29.80697328	     -1.80654076	     -5.08368633	     48.48993659	     -7.82040788	    -25.36323063	      0.00000000	     28.63087667	     -5.05899147	     -4.40608823	     47.23499283	    -11.10622543	    -14.92803474	      0.00000000	    -19.07858928	     -4.02910102	     38.59356121	    153.80508432	    194.48952422	     87.82850539	    144.08603613	     77.25454093	    441.48626067	     25.66852794	   -572.95779513	      0.00000000	      0.00000000
     28.78333330	     59.81020013	    -22.50144301	    171.54243886	     -0.06150786	      0.95485954	     -0.32998637	     30.10788730	     -1.64149698	     -5.05204919	     48.45346682	     -7.92173183	    -25.41019392	      0.00000000	     29.00131373	     -5.19944513	     -4.36395190	     47.35899604	    -11.39472088	    -15.15700301	      0.00000000	    -18.74933179	     -4.00513178	     38.71823829	    153.79430015	    195.12403219	     88.38334150	    143.37942739	     77.15529559	    440.93472305	     25.69187784	   -572.95779513	      0.00000000	      0.00000000
     28.80000000	     59.92531468	    -22.54956022	    171.58565753	     -0.06181647	      0.95344485	     -0.33025312	     30.13851026	     -1.64706986	     -5.04659144	     48.51085377	     -7.99476169	    -25.38701130	      0.00000000	     29.03863474	     -5.17978851	     -4.29750578	     47.43383157	    -11.54049570	    -15.08501871	      0.00000000	    -18.84794835	     -4.11273090	     38.83506243	    153.87661472	    195.38571684	     88.54306233	    143.30699832	     77.13991664	    440.57526332	     25.85759768	   -572.95779513	      0.00000000	      0.00000000
     28.81666670	     60.18943926	    -22.54376319	    171.47950238	     -0.06212988	      0.95167758	     -0.33059558	     30.28494512	     -1.48151465	     -4.89759770	     48.50190318	     -8.13246631	    -25.44892952	      0.00000000	     29.14319608	     -5.32773012	     -4.40338947	     47.49275228	    -11.76928432	    -15.29849353	      0.00000000	    -18.65372674	     -4.16029145	     38.90158485	    154.00056376	    196.06473698	     89.27198794	    142.59612523	     77.06841303	    440.10713228	     25.71834427	   -572.95779513	      0.00000000	      0.00000000
     28.83333330	     60.33497157	    -22.60414306	    171.47729272	     -0.06283732	      0.95009896	     -0.33094566	     30.29561516	     -1.49626121	     -4.87801496	     48.48539776	     -8.26579737	    -25.39043317	      0.00000000	     29.08893316	     -5.28167083	     -4.35196005	     47.41200898	    -11.90450508	    -15.19005664	      0.00000000	    -18.76353599	     -4.22143246	     39.03714580	    154.09965452	    196.29610691	     89.47818029	    142.50937433	     77.06295756	    439.78239143	     25.85343459	   -572.95779513	      0.00000000	      0.00000000
     28.85000000	     60.50241896	    -22.67100098	    171.32304842	     -0.06371665	      0.94822265	     -0.33164467	     30.32400757	     -1.39441185	     -4.64909153	     48.46244934	     -8.62180910	    -25.69992317	      0.00000000	     28.95311391	     -5.35084488	     -4.54615243	     47.25432437	    -12.11493090	    -15.29839640	      0.00000000	    -18.56100831	     -4.38501589	     38.56759896	    154.95045670	    197.10214170	     91.84962646	    141.58900566	     77.07200130	    439.38266470	     25.38753153	   -572.95779513	      0.00000000	      0.00000000
     28.86666670	     60.69182680	    -22.68790864	    171.25105994	     -0.06477623	      0.94620384	     -0.33213854	     30.30274975	     -1.33351222	     -4.60457487	     48.38449813	     -8.68895297	    -25.60763882	      0.00000000	     28.83106187	     -5.39776641	     -4.57464722	     47.09313903	    -12.24282211	    -15.22554010	      0.00000000	    -18.63450206	     -4.33948485	     38.77393060	    154.99364000	    197.25221865	     91.96536702	    141.53798658	     77.08465881	    439.11044985	     25.34350366	   -572.95779513	      0.00000000	      0.00000000
